<?xml version="1.0" encoding="utf-8"?>
<!-- Generator: Adobe Illustrator 24.3.0, SVG Export Plug-In . SVG Version: 6.00 Build 0)  -->
<svg version="1.1" id="Layer_1" xmlns="http://www.w3.org/2000/svg" xmlns:xlink="http://www.w3.org/1999/xlink" x="0px" y="0px"
	 viewBox="0 0 172.5 26.1" style="enable-background:new 0 0 172.5 26.1;" xml:space="preserve">
<style type="text/css">
	.st0{fill-rule:evenodd;clip-rule:evenodd;fill:#FFFFFF;}
	.st1{fill:#FFFFFF;}
</style>
<g>
	<g>
		<path class="st0" d="M67.6,2.4h6.6c0.3,0,0.6,0.3,0.6,0.6v19c0,0.3-0.3,0.6-0.6,0.6h-6.6c-0.3,0-0.6-0.3-0.6-0.6V3
			C67,2.7,67.3,2.4,67.6,2.4z M76.3,3.4v3c0.1,1.1,0.2,1,1.3,1c1.7-0.1,2.7,0.1,2.7,1.3c0,1.2-0.7,1.2-2.8,1.2c-0.7,0-1,0.2-1,0.8
			v2.8c0.1,1,0.2,1,1.1,1c0.7,0.1,3.2-0.5,3.5,1.5c0.1,0.6-0.1,2.3-3.6,1.8c-0.9,0-1.2,0.3-1.2,0.9v3c0,0.8,0,0.9,1.4,0.9l5.6,0.1
			c4.8,0.4,9.9-8.5,2-11c2.3,0.3,5.9-8.2-2.8-9.3H77C76.3,2.4,76.3,2.8,76.3,3.4L76.3,3.4z M16.2,2.4l5.9-0.1c0.7,0,1.1-0.1,2,1.2
			l12.1,19.3L30,22.7c-0.8,0-1-0.1-2.1-1.4L16.2,2.4z M31,2.7h6.6c0.3,0,0.6,0.3,0.6,0.6L38,22.9l-7.6-12.1V3.3
			C30.4,3,30.7,2.7,31,2.7L31,2.7z M21.4,22.6h-6.8c-0.3,0-0.6-0.3-0.6-0.6l0.2-19.8L22,14.4v7.7C22,22.3,21.7,22.6,21.4,22.6
			L21.4,22.6z M96.2,21.1c1.4-1.8,2.8-4.2,4.2-6c-1.9-1-1.4-7.9,4.6-5.9c1.3-1.9,2.8-3.6,4-5.5c-0.2-0.8-10-4.9-15,1.9
			C87.2,14.1,95.5,20.9,96.2,21.1L96.2,21.1z M110.2,4.3c-1.4,1.8-2.5,3.9-3.9,5.7c1.9,1,2.6,7.9-4.9,6l-4.2,5.8
			c0.5,0.1,8.7,4.9,15.2-1.8C118.6,11.4,110.9,4.3,110.2,4.3L110.2,4.3z M52.2,16.6c-2-0.3-3.8-2-3.8-3.9c0-2,1.8-3.8,3.8-4h-0.1
			c0.3,0,0.1-6.4,0-6.4c-7.6,0.4-10.8,4.9-10.8,10.5c0,5.4,5,9.8,10.9,10.4C52.3,23,52.2,16.5,52.2,16.6z M53.5,16.6l0.1,6.4
			c6.3-0.3,11.1-4.7,11.1-10.4s-5-10.2-11.2-10.5v6.3c1.8,0.4,3.4,2.2,3.4,4.1C57,14.5,55.4,16.2,53.5,16.6L53.5,16.6z"/>
	</g>
	<g>
		<path class="st1" d="M122.7,5.8l-5.5,0l0-2l13.3,0.1l0,2l-5.5,0l-0.1,14.1l-2.3,0L122.7,5.8z"/>
		<path class="st1" d="M130.2,13.8c0-3.6,2.7-6.2,6.4-6.1c3.6,0,6.3,2.6,6.3,6.2s-2.7,6.2-6.4,6.2C132.8,20.1,130.2,17.4,130.2,13.8
			z M140.6,13.9c0-2.6-1.7-4.3-4.1-4.3s-4.1,1.6-4.1,4.2c0,2.6,1.7,4.3,4.1,4.3S140.6,16.5,140.6,13.9z"/>
		<path class="st1" d="M158.5,14c0,3.7-2.6,6.2-6.2,6.2c-1.7,0-3.2-0.7-4.2-2l0,6.3l-2.2,0l0.1-16.6l2.1,0l0,1.9c1-1.3,2.6-2,4.4-2
			C156,7.8,158.5,10.3,158.5,14z M156.3,14c0-2.6-1.7-4.3-4.1-4.3c-2.3,0-4.1,1.7-4.1,4.2c0,2.6,1.7,4.3,4.1,4.3
			C154.5,18.3,156.3,16.6,156.3,14z"/>
	</g>
</g>
</svg>
