<?xml version="1.0" encoding="utf-8"?>
<!-- Generator: Adobe Illustrator 24.3.0, SVG Export Plug-In . SVG Version: 6.00 Build 0)  -->
<svg version="1.1" id="Layer_1" xmlns="http://www.w3.org/2000/svg" xmlns:xlink="http://www.w3.org/1999/xlink" x="0px" y="0px"
	 viewBox="0 0 211.7 26.1" style="enable-background:new 0 0 211.7 26.1;" xml:space="preserve">
<style type="text/css">
	.st0{fill-rule:evenodd;clip-rule:evenodd;fill:#FFFFFF;}
	.st1{fill:#FFFFFF;}
</style>
<g>
	<path class="st0" d="M64.1,0.9H72c0.4,0,0.7,0.3,0.7,0.7v22.7c0,0.4-0.3,0.7-0.7,0.7h-7.9c-0.4,0-0.7-0.3-0.7-0.7V1.6
		C63.4,1.2,63.7,0.9,64.1,0.9z M74.5,2.1l0,3.6c0.1,1.3,0.2,1.2,1.5,1.2C78,6.8,79.2,7,79.2,8.5c0,1.4-0.8,1.4-3.4,1.4
		c-0.8,0-1.2,0.2-1.2,1l0,3.3c0.1,1.2,0.2,1.2,1.3,1.2c0.8,0.1,3.8-0.6,4.2,1.8c0.1,0.7-0.1,2.8-4.3,2.2c-1.1,0-1.4,0.3-1.4,1.1v3.6
		c0,0.9,0,1.1,1.7,1.1l6.7,0.1c5.7,0.5,11.8-10.1,2.4-13.2c2.7,0.3,7-9.8-3.4-11.1l-6.5,0C74.5,0.9,74.5,1.3,74.5,2.1L74.5,2.1z
		 M2.7,0.9l7-0.1c0.8,0,1.3-0.1,2.4,1.4l14.5,23l-7.4-0.1c-0.9,0-1.2-0.1-2.5-1.7L2.7,0.9z M20.4,1.2h7.9c0.4,0,0.7,0.3,0.7,0.7
		l-0.2,23.5l-9.1-14.4V1.9C19.7,1.6,20,1.2,20.4,1.2L20.4,1.2z M8.9,25H0.8c-0.4,0-0.7-0.3-0.7-0.7L0.3,0.7l9.3,14.5v9.2
		C9.6,24.7,9.3,25,8.9,25L8.9,25z M98.3,23.2c1.7-2.1,3.3-5,5-7.2c-2.3-1.2-1.7-9.4,5.5-7.1c1.5-2.3,3.3-4.3,4.8-6.6
		c-0.2-1-11.9-5.9-17.9,2.3C87.5,14.9,97.4,23,98.3,23.2L98.3,23.2z M115,3.2c-1.7,2.1-3,4.6-4.7,6.8c2.3,1.2,3.1,9.4-5.8,7.2
		l-5,6.9c0.6,0.1,10.4,5.8,18.2-2.2C125,11.6,115.8,3.2,115,3.2L115,3.2z M45.7,17.8c-2.4-0.4-4.5-2.4-4.5-4.7
		c0-2.4,2.1-4.5,4.5-4.8c0,0-0.1,0-0.1,0c0.4,0,0.1-7.6,0-7.6c-9.1,0.5-12.9,5.9-12.9,12.5c0,6.5,6,11.7,13,12.4
		C45.8,25.5,45.7,17.7,45.7,17.8z M47.3,17.8c0,0,0.1,7.7,0.1,7.7c7.5-0.3,13.3-5.6,13.3-12.4c0-6.8-6-12.2-13.4-12.5
		c0,0,0,7.5,0,7.5c2.2,0.5,4.1,2.6,4.1,4.9C51.4,15.3,49.5,17.3,47.3,17.8L47.3,17.8z"/>
</g>
<g>
	<path class="st1" d="M127.3,4v8.2h11.7V15h-11.7v9.5H124V1h16.5V4H127.3z"/>
	<path class="st1" d="M154,6.6v3.1c-0.3,0-0.5,0-0.7,0c-3.4,0-5.6,2.1-5.6,6v8.8h-3.2V6.7h3.1v3C148.6,7.6,150.8,6.6,154,6.6z"/>
	<path class="st1" d="M156.1,15.6c0-5.3,3.9-9,9.2-9c5.3,0,9.2,3.7,9.2,9c0,5.3-3.9,9.1-9.2,9.1C160,24.7,156.1,20.9,156.1,15.6z
		 M171.3,15.6c0-3.8-2.5-6.2-6-6.2c-3.4,0-6,2.4-6,6.2c0,3.8,2.6,6.3,6,6.3C168.7,21.8,171.3,19.4,171.3,15.6z"/>
	<path class="st1" d="M195.8,14.3v10.2h-3.2v-9.8c0-3.5-1.7-5.2-4.8-5.2c-3.4,0-5.6,2-5.6,5.9v9.1H179V6.7h3.1v2.7
		c1.3-1.8,3.6-2.8,6.4-2.8C192.8,6.6,195.8,9,195.8,14.3z"/>
	<path class="st1" d="M211.7,23.4c-1,0.8-2.4,1.2-3.9,1.2c-3.6,0-5.6-2-5.6-5.6V9.4h-3V6.7h3V2.8h3.2v3.9h5.1v2.6h-5.1V19
		c0,1.9,1,3,2.8,3c0.9,0,1.8-0.3,2.5-0.8L211.7,23.4z"/>
</g>
</svg>
